<?xml version="1.0" standalone="no"?>
<!DOCTYPE svg PUBLIC "-//W3C//DTD SVG 20010904//EN"
 "http://www.w3.org/TR/2001/REC-SVG-20010904/DTD/svg10.dtd">
<svg version="1.0" xmlns="http://www.w3.org/2000/svg"
 width="358.000000pt" height="358.000000pt" viewBox="0 0 358.000000 358.000000"
 preserveAspectRatio="xMidYMid meet">

<g transform="translate(0.000000,358.000000) scale(0.100000,-0.100000)"
fill="#000000" stroke="none">
<path d="M1635 3574 c-86 -9 -184 -26 -267 -45 -73 -17 -87 -24 -90 -42 -2
-16 -27 -34 -98 -69 -92 -46 -164 -97 -341 -241 -46 -37 -111 -81 -144 -97
-74 -36 -63 -37 45 -5 46 14 85 24 86 22 1 -1 -17 -34 -41 -72 -24 -38 -61
-110 -81 -160 -20 -49 -56 -133 -79 -185 -24 -52 -62 -144 -84 -205 -23 -60
-57 -140 -75 -177 -19 -37 -29 -65 -23 -62 13 5 149 176 155 194 10 30 20 1
24 -72 6 -100 69 -423 79 -406 4 6 11 38 14 70 4 32 11 58 16 58 9 0 11 -7 25
-85 l8 -40 6 50 5 50 21 -36 c12 -20 25 -47 29 -60 4 -13 24 -55 44 -94 21
-38 40 -79 44 -90 3 -11 19 -56 36 -100 29 -77 30 -79 37 -47 3 17 9 32 13 32
3 0 21 -17 38 -37 l33 -38 -34 75 c-19 42 -38 88 -42 104 -6 26 -5 28 17 21
23 -7 23 -7 8 11 -9 11 -28 54 -43 96 -38 111 -34 152 9 88 25 -37 38 -39 25
-4 -17 43 -11 72 21 109 25 28 38 35 68 35 l36 0 -32 -25 c-24 -19 -33 -36
-38 -69 -8 -51 0 -86 20 -86 10 0 12 -7 5 -31 -11 -37 -2 -41 78 -43 l57 -1 0
92 0 92 22 -20 c20 -20 21 -20 25 -2 2 13 13 2 38 -39 45 -75 65 -77 56 -6
l-7 52 66 -72 c37 -40 70 -70 75 -67 4 3 11 50 15 105 6 84 9 99 21 89 8 -6
14 -24 14 -40 0 -38 17 -45 46 -18 20 19 24 20 24 6 0 -21 19 -22 45 -3 19 13
20 11 22 -44 1 -31 7 -70 13 -85 8 -21 8 -30 -1 -36 -21 -12 57 -22 129 -16
78 7 92 10 110 21 9 5 15 1 19 -13 7 -26 23 -28 23 -2 0 10 6 23 13 28 19 16
54 21 55 9 1 -6 5 -27 9 -46 7 -27 10 -31 16 -17 3 9 2 29 -4 43 -8 21 -6 29
8 40 16 11 18 10 21 -11 2 -12 -3 -57 -11 -98 -8 -41 -11 -81 -7 -87 12 -19
49 -2 65 31 9 16 18 29 20 29 12 0 -2 -47 -19 -63 -11 -9 -16 -20 -12 -24 4
-4 11 -1 16 7 15 24 21 5 9 -29 -9 -24 -14 -29 -20 -19 -6 9 -9 7 -9 -10 0
-47 -97 -161 -122 -146 -6 4 -8 2 -5 -3 9 -15 -62 -59 -232 -146 -79 -39 -159
-80 -179 -91 -46 -23 -117 -18 -160 12 -16 12 -34 22 -38 22 -5 0 15 -16 43
-35 82 -55 100 -51 383 87 90 44 187 89 214 100 60 23 67 16 64 -60 l-3 -53
-115 -53 c-63 -29 -158 -70 -210 -91 -52 -20 -108 -43 -125 -51 -30 -14 -75
-84 -75 -114 1 -8 11 5 23 29 29 60 49 72 205 131 136 51 323 139 355 168 22
20 22 31 -5 59 l-21 23 25 0 c13 0 28 3 31 6 10 11 79 14 117 5 35 -7 34 -7
-25 -19 l-61 -12 0 -36 c0 -27 -7 -42 -24 -57 -36 -30 -247 -128 -380 -177
-63 -23 -120 -47 -127 -54 -6 -6 -44 -73 -83 -148 -39 -76 -76 -140 -81 -144
-23 -14 -27 10 -9 57 11 27 20 55 20 61 0 21 -17 -6 -30 -47 -26 -81 -50 -82
-51 -2 0 29 -4 70 -9 92 -7 30 -8 16 -5 -58 4 -77 2 -97 -9 -97 -9 0 -15 22
-20 73 -20 219 -14 196 -64 231 -92 63 -112 85 -112 125 0 20 -4 31 -8 24 -7
-11 -52 -30 -132 -56 -55 -19 -164 -135 -185 -198 -26 -77 -16 -235 26 -409
27 -113 32 -155 33 -262 l1 -128 55 -26 c186 -88 464 -164 601 -164 45 0 50 3
60 28 19 51 121 247 163 312 76 117 399 462 449 479 6 2 -14 -25 -44 -60 -61
-70 -246 -302 -295 -371 -68 -95 -214 -362 -214 -392 0 -3 11 -6 24 -6 14 0
48 19 79 45 30 24 84 64 119 88 269 185 266 182 421 341 148 151 174 160 35
11 -160 -170 -346 -343 -475 -440 -29 -21 -52 -40 -50 -40 7 -6 180 17 264 35
264 55 521 175 738 345 100 78 253 236 328 336 l57 76 1 654 c1 360 4 722 8
804 5 135 8 150 24 147 12 -2 17 4 17 20 1 25 21 58 37 58 5 0 19 10 31 23
l21 23 -23 50 c-32 69 -128 224 -183 298 -68 89 -226 249 -318 321 -232 181
-500 302 -786 355 -111 21 -378 34 -474 24z m168 -28 c25 -19 21 -26 -13 -26
-28 0 -40 17 -23 33 9 10 15 8 36 -7z m964 -837 c2 -198 -10 -266 -21 -125 -4
47 -18 123 -31 168 -14 46 -25 91 -25 101 0 19 15 23 25 7 9 -15 25 -2 25 21
0 12 5 19 13 17 9 -4 12 -52 14 -189z m62 -159 c2 -65 12 -120 22 -114 13 8
17 -29 24 -226 6 -172 11 -214 22 -182 3 6 8 10 13 7 4 -3 11 62 15 145 4 82
11 150 16 150 5 0 9 -136 9 -302 0 -302 18 -642 31 -583 4 17 7 96 8 176 2
283 15 634 22 609 4 -14 8 -108 9 -210 2 -188 16 -202 21 -20 l2 85 8 -110
c28 -414 47 -975 32 -975 -11 0 -76 24 -90 33 -6 4 -14 38 -18 75 -10 99 -22
138 -56 176 -36 42 -103 66 -182 66 -52 0 -62 3 -86 29 -38 41 -111 60 -286
73 -82 6 -153 14 -158 18 -4 3 7 34 25 68 35 68 49 66 37 -6 -4 -26 -5 -49 -3
-51 9 -9 32 23 72 101 23 46 51 94 61 107 l19 25 18 -40 17 -39 13 87 c6 47
15 91 18 97 17 26 26 6 26 -54 0 -74 14 -87 23 -21 4 24 20 87 37 140 25 76
36 99 55 108 14 6 22 15 18 20 -3 6 5 4 18 -3 22 -12 23 -12 4 -19 -19 -7 -19
-7 2 -18 29 -16 34 -15 27 3 -12 30 6 14 20 -17 14 -33 14 -33 15 -6 1 35 17
44 31 18 6 -11 15 -18 21 -15 14 10 11 -5 -6 -22 -9 -8 -13 -18 -10 -21 3 -4
10 0 15 8 6 8 10 11 11 5 0 -5 5 3 9 18 5 16 7 34 4 40 -2 7 -34 28 -70 47
-84 45 -91 53 -65 79 13 13 16 21 9 22 -10 0 -10 2 0 6 6 2 10 9 7 13 -3 5 -1
11 5 15 6 4 10 -14 10 -49 0 -104 39 -51 44 59 2 33 4 83 5 110 1 37 4 46 11
35 6 -8 9 -55 8 -105 -2 -78 0 -90 15 -93 14 -3 16 3 12 40 -2 24 -7 132 -10
241 -5 171 -3 198 10 203 8 4 15 14 16 23 2 31 17 -34 18 -79z m-1756 -145 c2
-33 -1 -40 -18 -43 -44 -5 -46 8 -23 124 l23 109 8 -75 c4 -41 8 -93 10 -115z
m718 -13 c5 -13 4 -22 -1 -22 -6 0 -10 8 -10 18 0 10 -3 13 -8 6 -4 -6 -15
-13 -24 -17 -19 -7 -24 15 -12 48 6 14 9 14 27 2 11 -7 24 -23 28 -35z m-627
-51 c-10 -10 -22 21 -16 43 5 19 6 18 13 -9 5 -16 6 -31 3 -34z m-79 -21 c3
-10 10 -41 14 -67 5 -26 12 -55 15 -64 6 -14 -1 -18 -44 -20 -28 -2 -54 -2
-56 0 -2 2 -4 42 -4 88 l0 83 34 0 c26 0 36 -5 41 -20z m728 3 c-20 -8 -15
-31 8 -38 19 -6 20 -8 3 -26 -16 -17 -16 -19 -1 -19 10 0 17 5 17 10 0 6 5 10
10 10 6 0 10 -7 10 -15 0 -8 5 -15 10 -15 6 0 10 -6 10 -14 0 -8 6 -17 13 -19
6 -3 -5 -5 -27 -4 -35 0 -37 2 -20 14 21 15 20 15 -65 13 l-64 -1 6 41 c3 24
11 48 18 54 9 8 11 7 6 -6 -7 -21 19 -14 27 8 3 8 16 14 28 13 13 0 17 -3 11
-6z m156 -42 c13 -39 14 -71 3 -71 -4 0 -9 14 -10 31 -1 18 -6 37 -9 43 -4 6
-9 20 -10 31 -5 29 12 7 26 -34z m-780 -13 c6 -17 11 -41 11 -54 0 -18 -4 -21
-22 -16 -14 3 -19 2 -14 -6 4 -7 12 -12 18 -12 16 0 58 -41 58 -57 0 -17 0
-17 -52 12 l-44 25 -2 66 c-1 36 0 70 3 74 10 16 33 -1 44 -32z m1511 -41
c-14 -15 -21 12 -14 50 l8 38 7 -40 c4 -22 4 -44 -1 -48z m-1020 33 c0 -29 -4
-40 -15 -40 -8 0 -15 6 -15 13 0 8 -4 7 -11 -3 -7 -11 -8 -6 -3 20 8 44 12 50
30 50 10 0 14 -12 14 -40z m-705 -82 c20 -42 21 -49 8 -67 -8 -12 -21 -21 -29
-21 -11 0 -14 17 -13 83 0 45 3 75 6 67 3 -8 16 -36 28 -62z m1025 30 c0 -19
-18 -44 -25 -36 -4 3 0 15 7 27 15 24 18 26 18 9z m-254 -33 c-23 -17 -36 -19
-36 -6 0 5 10 12 23 14 12 2 24 5 27 5 3 1 -4 -5 -14 -13z m51 9 c-3 -3 -12
-4 -19 -1 -8 3 -5 6 6 6 11 1 17 -2 13 -5z m-125 -33 c-4 -10 -22 -31 -41 -47
-36 -30 -33 -18 9 34 28 35 43 41 32 13z m274 -66 c27 -17 47 -76 30 -87 -6
-4 -7 -8 -1 -8 5 0 4 -5 -3 -12 -7 -7 -12 -25 -12 -40 0 -18 -5 -28 -15 -28
-12 0 -15 13 -15 58 -1 65 -14 95 -56 124 l-29 20 39 -6 c21 -3 49 -12 62 -21z
m-52 -41 c23 -9 20 -44 -3 -44 -21 0 -31 17 -23 38 5 14 5 14 26 6z m-686 -28
c3 -13 -1 -17 -14 -14 -11 2 -20 11 -22 22 -3 13 1 17 14 14 11 -2 20 -11 22
-22z m898 -43 c-10 -10 -19 5 -10 18 6 11 8 11 12 0 2 -7 1 -15 -2 -18z m-62
3 c-3 -8 5 -22 18 -31 23 -17 23 -17 1 -12 -12 3 -24 0 -27 -7 -2 -6 -5 3 -5
20 -1 17 2 34 6 37 10 11 13 8 7 -7z m366 -36 c0 -11 -2 -20 -4 -20 -2 0 -6 9
-9 20 -3 11 -1 20 4 20 5 0 9 -9 9 -20z m-170 -105 c-7 -9 -15 -13 -17 -11 -7
7 7 26 19 26 6 0 6 -6 -2 -15z m-30 -53 c0 -10 -4 -10 -16 2 -8 9 -12 21 -8
27 7 13 24 -7 24 -29z m173 23 c-3 -9 -8 -14 -10 -11 -3 3 -2 9 2 15 9 16 15
13 8 -4z m-197 -62 c-10 -10 -19 5 -10 18 6 11 8 11 12 0 2 -7 1 -15 -2 -18z
m132 14 c8 -10 6 -13 -9 -13 -19 0 -24 7 -12 19 8 9 9 9 21 -6z m-95 -44 c-7
-18 -28 -16 -44 3 -11 13 -9 14 17 9 20 -5 25 -4 15 3 -8 6 -10 15 -6 23 6 9
10 8 15 -7 4 -10 5 -25 3 -31z m46 -10 c-9 -10 -8 -13 4 -13 8 0 18 7 21 16 4
9 9 14 13 10 3 -3 -1 -14 -11 -25 -12 -13 -32 -19 -71 -20 -31 0 -55 4 -55 9
0 8 46 15 73 11 4 0 6 2 6 7 -3 14 1 19 16 19 11 0 12 -4 4 -14z m-99 -218 c0
-15 -6 -25 -15 -25 -12 0 -13 4 -3 25 6 14 13 25 15 25 1 0 3 -11 3 -25z
m1017 -537 c-2 -13 -4 -5 -4 17 -1 22 1 32 4 23 2 -10 2 -28 0 -40z m-1713
-290 c16 -26 -4 -53 -40 -53 -23 0 -30 5 -32 23 -2 13 -1 30 2 38 8 20 56 14
70 -8z"/>
<path d="M2775 2080 c3 -5 8 -10 11 -10 2 0 4 5 4 10 0 6 -5 10 -11 10 -5 0
-7 -4 -4 -10z"/>
<path d="M2775 1891 c-3 -5 -1 -12 5 -16 5 -3 10 1 10 9 0 18 -6 21 -15 7z"/>
<path d="M2792 1840 c0 -14 2 -19 5 -12 2 6 2 18 0 25 -3 6 -5 1 -5 -13z"/>
<path d="M3022 1800 c0 -14 2 -19 5 -12 2 6 2 18 0 25 -3 6 -5 1 -5 -13z"/>
<path d="M42 2182 c-16 -79 -16 -122 2 -122 12 0 15 19 15 90 0 50 -1 90 -3
90 -1 0 -7 -26 -14 -58z"/>
<path d="M30 1900 c0 -47 4 -80 10 -80 6 0 10 33 10 80 0 47 -4 80 -10 80 -6
0 -10 -33 -10 -80z"/>
<path d="M2011 1860 c-1 -18 16 -46 23 -40 2 3 -2 16 -9 30 -8 15 -14 19 -14
10z"/>
<path d="M1928 1823 c7 -3 16 -2 19 1 4 3 -2 6 -13 5 -11 0 -14 -3 -6 -6z"/>
<path d="M1368 1778 c-14 -31 -15 -45 -6 -61 10 -19 12 -16 25 33 17 66 4 84
-19 28z"/>
<path d="M2105 1670 c-3 -5 -1 -10 4 -10 6 0 11 5 11 10 0 6 -2 10 -4 10 -3 0
-8 -4 -11 -10z"/>
<path d="M2090 1641 c0 -6 5 -13 10 -16 6 -3 10 1 10 9 0 9 -4 16 -10 16 -5 0
-10 -4 -10 -9z"/>
<path d="M1322 1324 c-7 -8 -17 -12 -22 -9 -5 3 -21 -7 -37 -21 l-28 -27 28 7
c15 3 38 9 51 12 20 5 25 1 34 -28 23 -74 24 -88 5 -81 -10 3 -33 19 -52 35
-18 16 -36 26 -40 23 -8 -9 43 -50 93 -76 l39 -21 -8 29 c-4 15 -9 54 -11 86
-2 52 -16 88 -33 87 -3 -1 -12 -7 -19 -16z"/>
<path d="M90 1225 c0 -3 15 -43 32 -88 23 -59 33 -75 36 -59 3 21 -50 152 -62
152 -4 0 -6 -2 -6 -5z"/>
<path d="M801 1084 c0 -11 3 -14 6 -6 3 7 2 16 -1 19 -3 4 -6 -2 -5 -13z"/>
<path d="M775 1050 c-29 -11 -41 -29 -54 -82 -19 -79 -14 -171 15 -256 23 -68
103 -233 125 -257 13 -13 0 132 -21 245 -33 176 -43 249 -38 304 3 31 2 56 -1
55 -3 0 -15 -4 -26 -9z"/>
<path d="M665 411 c-3 -5 -1 -12 5 -16 5 -3 10 1 10 9 0 18 -6 21 -15 7z"/>
</g>
</svg>
